KRS.PY-Black Narrow.ufo
<glyph name="zero" format="1">
  <advance width="828"/>
  <unicode hex="0030"/>
  <outline>
    <contour>
      <point x="31" y="0" type="line"/>
      <point x="797" y="0" type="line"/>
      <point x="797" y="750" type="line"/>
      <point x="31" y="750" type="line"/>
    </contour>
    <contour>
      <point x="370" y="102" type="line"/>
      <point x="370" y="648" type="line"/>
      <point x="458" y="648" type="line"/>
      <point x="458" y="102" type="line"/>
    </contour>
  </outline>
</glyph>
<glyph name="one" format="1">
  <advance width="739"/>
  <unicode hex="0031"/>
  <outline>
    <contour>
      <point x="11" y="0" type="line"/>
      <point x="736" y="0" type="line"/>
      <point x="736" y="105" type="line"/>
      <point x="543" y="105" type="line"/>
      <point x="543" y="750" type="line"/>
      <point x="23" y="750" type="line"/>
      <point x="23" y="645" type="line"/>
      <point x="204" y="645" type="line"/>
      <point x="204" y="105" type="line"/>
      <point x="11" y="105" type="line"/>
    </contour>
  </outline>
</glyph>
<glyph name="two" format="1">
  <advance width="826"/>
  <unicode hex="0032"/>
  <outline>
    <contour>
      <point x="46" y="0" type="line"/>
      <point x="772" y="0" type="line"/>
      <point x="772" y="122" type="line"/>
      <point x="431" y="122" type="line"/>
      <point x="431" y="122" type="line"/>
      <point x="385" y="122" type="line"/>
      <point x="385" y="317" type="line"/>
      <point x="765" y="317" type="line"/>
      <point x="765" y="750" type="line"/>
      <point x="54" y="750" type="line"/>
      <point x="54" y="628" type="line"/>
      <point x="425" y="628" type="line"/>
      <point x="425" y="456" type="line"/>
      <point x="46" y="456" type="line"/>
    </contour>
  </outline>
</glyph>
<glyph name="three" format="1">
  <advance width="808"/>
  <unicode hex="0033"/>
  <outline>
    <contour>
      <point x="26" y="0" type="line"/>
      <point x="775" y="0" type="line"/>
      <point x="775" y="390" type="line"/>
      <point x="530" y="390" type="line"/>
      <point x="530" y="400" type="line"/>
      <point x="764" y="486" type="line"/>
      <point x="764" y="750" type="line"/>
      <point x="30" y="750" type="line"/>
      <point x="30" y="516" type="line"/>
      <point x="368" y="516" type="line"/>
      <point x="368" y="648" type="line"/>
      <point x="422" y="648" type="line"/>
      <point x="422" y="432" type="line"/>
      <point x="364" y="407" type="line"/>
      <point x="155" y="407" type="line"/>
      <point x="155" y="325" type="line"/>
      <point x="436" y="325" type="line"/>
      <point x="436" y="100" type="line"/>
      <point x="365" y="100" type="line"/>
      <point x="365" y="191" type="line"/>
      <point x="26" y="191" type="line"/>
    </contour>
  </outline>
</glyph>
<glyph name="five" format="1">
  <advance width="809"/>
  <unicode hex="0035"/>
  <outline>
    <contour>
      <point x="31" y="0" type="line"/>
      <point x="685" y="0" type="line"/>
      <point x="778" y="162" type="line"/>
      <point x="778" y="459" type="line"/>
      <point x="370" y="459" type="line"/>
      <point x="370" y="645" type="line"/>
      <point x="761" y="645" type="line"/>
      <point x="761" y="750" type="line"/>
      <point x="31" y="750" type="line"/>
      <point x="31" y="334" type="line"/>
      <point x="441" y="334" type="line"/>
      <point x="441" y="160" type="line"/>
      <point x="412" y="100" type="line"/>
      <point x="370" y="100" type="line"/>
      <point x="370" y="201" type="line"/>
      <point x="31" y="201" type="line"/>
    </contour>
  </outline>
</glyph>
<glyph name="six" format="1">
  <advance width="821"/>
  <unicode hex="0036"/>
  <outline>
    <contour>
      <point x="26" y="0" type="line"/>
      <point x="790" y="0" type="line"/>
      <point x="790" y="392" type="line"/>
      <point x="365" y="392" type="line"/>
      <point x="365" y="507" type="line"/>
      <point x="401" y="648" type="line"/>
      <point x="431" y="648" type="line"/>
      <point x="431" y="526" type="line"/>
      <point x="770" y="526" type="line"/>
      <point x="770" y="750" type="line"/>
      <point x="101" y="750" type="line"/>
      <point x="26" y="586" type="line"/>
    </contour>
    <contour>
      <point x="365" y="102" type="line"/>
      <point x="365" y="306" type="line"/>
      <point x="441" y="306" type="line"/>
      <point x="441" y="102" type="line"/>
    </contour>
  </outline>
</glyph>
<glyph name="seven" format="1">
  <advance width="781"/>
  <unicode hex="0037"/>
  <outline>
    <contour>
      <point x="226" y="0" type="line"/>
      <point x="545" y="0" type="line"/>
      <point x="763" y="548" type="line"/>
      <point x="763" y="750" type="line"/>
      <point x="28" y="750" type="line"/>
      <point x="28" y="480" type="line"/>
      <point x="342" y="480" type="line"/>
      <point x="342" y="645" type="line"/>
      <point x="424" y="645" type="line"/>
      <point x="424" y="537" type="line"/>
    </contour>
  </outline>
</glyph>
<glyph name="eight" format="1">
  <advance width="915"/>
  <unicode hex="0038"/>
  <outline>
    <contour>
      <point x="76" y="0" type="line"/>
      <point x="838" y="0" type="line"/>
      <point x="838" y="300" type="line"/>
      <point x="645" y="365" type="line"/>
      <point x="645" y="379" type="line"/>
      <point x="836" y="435" type="line"/>
      <point x="836" y="750" type="line"/>
      <point x="77" y="750" type="line"/>
      <point x="77" y="435" type="line"/>
      <point x="268" y="379" type="line"/>
      <point x="268" y="365" type="line"/>
      <point x="76" y="300" type="line"/>
    </contour>
    <contour>
      <point x="415" y="102" type="line"/>
      <point x="415" y="318" type="line"/>
      <point x="441" y="327" type="line"/>
      <point x="472" y="327" type="line"/>
      <point x="499" y="318" type="line"/>
      <point x="499" y="102" type="line"/>
    </contour>
    <contour>
      <point x="441" y="416" type="line"/>
      <point x="416" y="422" type="line"/>
      <point x="416" y="648" type="line"/>
      <point x="498" y="648" type="line"/>
      <point x="498" y="422" type="line"/>
      <point x="472" y="416" type="line"/>
    </contour>
  </outline>
</glyph>
<glyph name="nine" format="1">
  <advance width="815"/>
  <unicode hex="0039"/>
  <outline>
    <contour>
      <point x="30" y="1" type="line"/>
      <point x="789" y="1" type="line"/>
      <point x="789" y="536" type="line"/>
      <point x="706" y="752" type="line"/>
      <point x="28" y="751" type="line"/>
      <point x="28" y="327" type="line"/>
      <point x="451" y="327" type="line"/>
      <point x="451" y="103" type="line"/>
      <point x="369" y="103" type="line"/>
      <point x="369" y="201" type="line"/>
      <point x="30" y="201" type="line"/>
    </contour>
    <contour>
      <point x="367" y="395" type="line"/>
      <point x="367" y="649" type="line"/>
      <point x="414" y="649" type="line"/>
      <point x="451" y="508" type="line"/>
      <point x="451" y="395" type="line"/>
    </contour>
  </outline>
</glyph>
<glyph name="B" format="1">
  <advance width="811"/>
  <unicode hex="0042"/>
  <outline>
    <contour>
      <point x="31" y="0" type="line"/>
      <point x="800" y="0" type="line"/>
      <point x="800" y="310" type="line"/>
      <point x="670" y="367" type="line"/>
      <point x="670" y="380" type="line"/>
      <point x="789" y="432" type="line"/>
      <point x="789" y="750" type="line"/>
      <point x="31" y="750" type="line"/>
    </contour>
    <contour>
      <point x="370" y="97" type="line"/>
      <point x="370" y="342" type="line"/>
      <point x="407" y="342" type="line"/>
      <point x="461" y="319" type="line"/>
      <point x="461" y="97" type="line"/>
    </contour>
    <contour>
      <point x="370" y="408" type="line"/>
      <point x="370" y="653" type="line"/>
      <point x="450" y="653" type="line"/>
      <point x="450" y="432" type="line"/>
      <point x="407" y="408" type="line"/>
    </contour>
  </outline>
</glyph>
<glyph name="F" format="1">
  <advance width="788"/>
  <unicode hex="0046"/>
  <outline>
    <contour>
      <point x="31" y="0" type="line"/>
      <point x="370" y="0" type="line"/>
      <point x="370" y="253" type="line"/>
      <point x="632" y="253" type="line"/>
      <point x="632" y="386" type="line"/>
      <point x="370" y="386" type="line"/>
      <point x="370" y="653" type="line"/>
      <point x="446" y="653" type="line"/>
      <point x="446" y="490" type="line"/>
      <point x="785" y="490" type="line"/>
      <point x="785" y="750" type="line"/>
      <point x="31" y="750" type="line"/>
    </contour>
  </outline>
</glyph>
<glyph name="G" format="1">
  <advance width="831"/>
  <unicode hex="0047"/>
  <outline>
    <contour>
      <point x="26" y="0" type="line"/>
      <point x="805" y="0" type="line"/>
      <point x="805" y="401" type="line"/>
      <point x="411" y="401" type="line"/>
      <point x="411" y="284" type="line"/>
      <point x="466" y="284" type="line"/>
      <point x="466" y="97" type="line"/>
      <point x="365" y="97" type="line"/>
      <point x="365" y="579" type="line"/>
      <point x="394" y="653" type="line"/>
      <point x="458" y="653" type="line"/>
      <point x="458" y="492" type="line"/>
      <point x="797" y="492" type="line"/>
      <point x="797" y="750" type="line"/>
      <point x="89" y="750" type="line"/>
      <point x="26" y="587" type="line"/>
    </contour>
  </outline>
</glyph>
<glyph name="H" format="1">
  <advance width="829"/>
  <unicode hex="0048"/>
  <outline>
    <contour>
      <point x="31" y="0" type="line"/>
      <point x="370" y="0" type="line"/>
      <point x="370" y="295" type="line"/>
      <point x="459" y="295" type="line"/>
      <point x="459" y="0" type="line"/>
      <point x="798" y="0" type="line"/>
      <point x="798" y="750" type="line"/>
      <point x="459" y="750" type="line"/>
      <point x="459" y="439" type="line"/>
      <point x="370" y="439" type="line"/>
      <point x="370" y="750" type="line"/>
      <point x="31" y="750" type="line"/>
    </contour>
  </outline>
</glyph>
<glyph name="I" format="1">
  <advance width="411"/>
  <unicode hex="0049"/>
  <outline>
    <contour>
      <point x="36" y="0" type="line"/>
      <point x="375" y="0" type="line"/>
      <point x="375" y="750" type="line"/>
      <point x="36" y="750" type="line"/>
    </contour>
  </outline>
</glyph>
<glyph name="K" format="1">
  <advance width="821"/>
  <unicode hex="004B"/>
  <outline>
    <contour>
      <point x="31" y="0" type="line"/>
      <point x="370" y="0" type="line"/>
      <point x="370" y="332" type="line"/>
      <point x="414" y="340" type="line"/>
      <point x="461" y="327" type="line"/>
      <point x="461" y="0" type="line"/>
      <point x="800" y="0" type="line"/>
      <point x="800" y="319" type="line"/>
      <point x="581" y="387" type="line"/>
      <point x="581" y="402" type="line"/>
      <point x="793" y="451" type="line"/>
      <point x="793" y="750" type="line"/>
      <point x="454" y="750" type="line"/>
      <point x="454" y="446" type="line"/>
      <point x="409" y="425" type="line"/>
      <point x="370" y="425" type="line"/>
      <point x="370" y="750" type="line"/>
      <point x="31" y="750" type="line"/>
    </contour>
  </outline>
</glyph>
<glyph name="L" format="1">
  <advance width="804"/>
  <unicode hex="004C"/>
  <outline>
    <contour>
      <point x="31" y="0" type="line"/>
      <point x="781" y="0" type="line"/>
      <point x="781" y="289" type="line"/>
      <point x="442" y="289" type="line"/>
      <point x="442" y="97" type="line"/>
      <point x="370" y="97" type="line"/>
      <point x="370" y="750" type="line"/>
      <point x="31" y="750" type="line"/>
    </contour>
  </outline>
</glyph>
<glyph name="M" format="1">
  <advance width="1238"/>
  <unicode hex="004D"/>
  <outline>
    <contour>
      <point x="31" y="0" type="line"/>
      <point x="350" y="0" type="line"/>
      <point x="350" y="619" type="line"/>
      <point x="370" y="619" type="line"/>
      <point x="444" y="45" type="line"/>
      <point x="775" y="45" type="line"/>
      <point x="856" y="620" type="line"/>
      <point x="878" y="620" type="line"/>
      <point x="878" y="0" type="line"/>
      <point x="1207" y="0" type="line"/>
      <point x="1207" y="750" type="line"/>
      <point x="686" y="750" type="line"/>
      <point x="628" y="160" type="line"/>
      <point x="610" y="160" type="line"/>
      <point x="551" y="750" type="line"/>
      <point x="31" y="750" type="line"/>
    </contour>
  </outline>
</glyph>
<glyph name="N" format="1">
  <advance width="956"/>
  <unicode hex="004E"/>
  <outline>
    <contour>
      <point x="31" y="0" type="line"/>
      <point x="328" y="0" type="line"/>
      <point x="328" y="599" type="line"/>
      <point x="336" y="599" type="line"/>
      <point x="414" y="0" type="line"/>
      <point x="925" y="0" type="line"/>
      <point x="925" y="750" type="line"/>
      <point x="636" y="750" type="line"/>
      <point x="636" y="178" type="line"/>
      <point x="625" y="178" type="line"/>
      <point x="553" y="750" type="line"/>
      <point x="31" y="750" type="line"/>
    </contour>
  </outline>
</glyph>
<glyph name="O" format="1">
  <advance width="834"/>
  <unicode hex="004F"/>
  <outline>
    <contour>
      <point x="26" y="0" type="line"/>
      <point x="747" y="0" type="line"/>
      <point x="808" y="162" type="line"/>
      <point x="808" y="750" type="line"/>
      <point x="104" y="750" type="line"/>
      <point x="26" y="564" type="line"/>
    </contour>
    <contour>
      <point x="365" y="97" type="line"/>
      <point x="365" y="485" type="line"/>
      <point x="419" y="653" type="line"/>
      <point x="469" y="653" type="line"/>
      <point x="469" y="241" type="line"/>
      <point x="414" y="97" type="line"/>
    </contour>
  </outline>
</glyph>
<glyph name="P" format="1">
  <advance width="804"/>
  <unicode hex="0050"/>
  <outline>
    <contour>
      <point x="31" y="0" type="line"/>
      <point x="370" y="0" type="line"/>
      <point x="370" y="288" type="line"/>
      <point x="793" y="348" type="line"/>
      <point x="793" y="750" type="line"/>
      <point x="31" y="750" type="line"/>
    </contour>
    <contour>
      <point x="370" y="411" type="line"/>
      <point x="370" y="653" type="line"/>
      <point x="454" y="653" type="line"/>
      <point x="454" y="420" type="line"/>
    </contour>
  </outline>
</glyph>
<glyph name="Q" format="1">
  <advance width="829"/>
  <unicode hex="0051"/>
  <outline>
    <contour>
      <point x="28" y="0" type="line"/>
      <point x="798" y="0" type="line"/>
      <point x="798" y="750" type="line"/>
      <point x="91" y="750" type="line"/>
      <point x="28" y="545" type="line"/>
    </contour>
    <contour>
      <point x="362" y="-138" type="line"/>
      <point x="548" y="-138" type="line"/>
      <point x="504" y="10" type="line"/>
      <point x="320" y="10" type="line"/>
    </contour>
    <contour>
      <point x="367" y="117" type="line"/>
      <point x="367" y="467" type="line"/>
      <point x="403" y="653" type="line"/>
      <point x="459" y="653" type="line"/>
      <point x="459" y="117" type="line"/>
    </contour>
  </outline>
</glyph>
<glyph name="R" format="1">
  <advance width="819"/>
  <unicode hex="0052"/>
  <outline>
    <contour>
      <point x="31" y="0" type="line"/>
      <point x="370" y="0" type="line"/>
      <point x="370" y="328" type="line"/>
      <point x="406" y="328" type="line"/>
      <point x="458" y="304" type="line"/>
      <point x="458" y="0" type="line"/>
      <point x="796" y="0" type="line"/>
      <point x="795" y="324" type="line"/>
      <point x="538" y="371" type="line"/>
      <point x="538" y="383" type="line"/>
      <point x="792" y="404" type="line"/>
      <point x="792" y="750" type="line"/>
      <point x="31" y="750" type="line"/>
    </contour>
    <contour>
      <point x="370" y="414" type="line"/>
      <point x="370" y="653" type="line"/>
      <point x="453" y="653" type="line"/>
      <point x="453" y="430" type="line"/>
      <point x="409" y="414" type="line"/>
    </contour>
  </outline>
</glyph>
<glyph name="S" format="1">
  <advance width="790"/>
  <unicode hex="0053"/>
  <outline>
    <contour>
      <point x="23" y="0" type="line"/>
      <point x="769" y="0" type="line"/>
      <point x="769" y="421" type="line"/>
      <point x="360" y="421" type="line"/>
      <point x="360" y="487" type="line"/>
      <point x="386" y="654" type="line"/>
      <point x="434" y="654" type="line"/>
      <point x="434" y="518" type="line"/>
      <point x="763" y="518" type="line"/>
      <point x="763" y="750" type="line"/>
      <point x="106" y="750" type="line"/>
      <point x="21" y="533" type="line"/>
      <point x="21" y="299" type="line"/>
      <point x="430" y="299" type="line"/>
      <point x="430" y="97" type="line"/>
      <point x="362" y="97" type="line"/>
      <point x="362" y="199" type="line"/>
      <point x="23" y="199" type="line"/>
    </contour>
  </outline>
</glyph>
<glyph name="V" format="1">
  <advance width="826"/>
  <unicode hex="0056"/>
  <outline>
    <contour>
      <point x="31" y="0" type="line"/>
      <point x="740" y="0" type="line"/>
      <point x="798" y="143" type="line"/>
      <point x="798" y="750" type="line"/>
      <point x="459" y="750" type="line"/>
      <point x="459" y="202" type="line"/>
      <point x="419" y="102" type="line"/>
      <point x="370" y="102" type="line"/>
      <point x="370" y="750" type="line"/>
      <point x="31" y="750" type="line"/>
    </contour>
  </outline>
</glyph>
<glyph name="X" format="1">
  <advance width="814"/>
  <unicode hex="0058"/>
  <outline>
    <contour>
      <point x="23" y="0" type="line"/>
      <point x="362" y="0" type="line"/>
      <point x="362" y="307" type="line"/>
      <point x="400" y="326" type="line"/>
      <point x="415" y="326" type="line"/>
      <point x="452" y="307" type="line"/>
      <point x="452" y="0" type="line"/>
      <point x="791" y="0" type="line"/>
      <point x="791" y="313" type="line"/>
      <point x="540" y="363" type="line"/>
      <point x="540" y="382" type="line"/>
      <point x="790" y="424" type="line"/>
      <point x="790" y="750" type="line"/>
      <point x="451" y="750" type="line"/>
      <point x="451" y="434" type="line"/>
      <point x="415" y="417" type="line"/>
      <point x="400" y="417" type="line"/>
      <point x="364" y="434" type="line"/>
      <point x="364" y="750" type="line"/>
      <point x="25" y="750" type="line"/>
      <point x="25" y="424" type="line"/>
      <point x="275" y="383" type="line"/>
      <point x="275" y="363" type="line"/>
      <point x="23" y="313" type="line"/>
    </contour>
  </outline>
</glyph>
<glyph name="Y" format="1">
  <advance width="812"/>
  <unicode hex="0059"/>
  <outline>
    <contour>
      <point x="239" y="0" type="line"/>
      <point x="573" y="0" type="line"/>
      <point x="573" y="308" type="line"/>
      <point x="786" y="362" type="line"/>
      <point x="786" y="750" type="line"/>
      <point x="447" y="750" type="line"/>
      <point x="447" y="397" type="line"/>
      <point x="411" y="385" type="line"/>
      <point x="404" y="385" type="line"/>
      <point x="365" y="397" type="line"/>
      <point x="365" y="750" type="line"/>
      <point x="26" y="750" type="line"/>
      <point x="26" y="362" type="line"/>
      <point x="239" y="308" type="line"/>
    </contour>
  </outline>
</glyph>
<glyph name="Z" format="1">
  <advance width="786"/>
  <unicode hex="005A"/>
  <outline>
    <contour>
      <point x="33" y="0" type="line"/>
      <point x="763" y="0" type="line"/>
      <point x="763" y="220" type="line"/>
      <point x="424" y="220" type="line"/>
      <point x="424" y="85" type="line"/>
      <point x="341" y="85" type="line"/>
      <point x="341" y="168" type="line"/>
      <point x="758" y="606" type="line"/>
      <point x="758" y="750" type="line"/>
      <point x="32" y="749" type="line"/>
      <point x="32" y="545" type="line"/>
      <point x="343" y="546" type="line"/>
      <point x="343" y="650" type="line"/>
      <point x="420" y="650" type="line"/>
      <point x="420" y="593" type="line"/>
      <point x="33" y="190" type="line"/>
    </contour>
  </outline>
</glyph>
